HIERARCHY
ROOT SpineBase
{
  OFFSET 0.000000 0.000000 0.000000
  CHANNELS 6 Xposition Yposition Zposition Zrotation Xrotation Yrotation
  JOINT SpineMid
  {
    OFFSET -0.000000 28.905721 0.000000
    CHANNELS 3 Zrotation Xrotation Yrotation
    JOINT SpineShoulder
    {
      OFFSET -0.036579 21.493667 -0.669178
      CHANNELS 3 Zrotation Xrotation Yrotation
      JOINT Neck
      {
        OFFSET -0.024478 7.115869 -0.519784
        CHANNELS 3 Zrotation Xrotation Yrotation
        JOINT Head
        {
          OFFSET -2.659549 12.840239 0.140577
          CHANNELS 3 Zrotation Xrotation Yrotation
          End Site
          {
            OFFSET 0 0 0
          }
        }
      }
      JOINT ShoulderLeft
      {
        OFFSET -13.042359 -3.213540 7.885782
        CHANNELS 3 Zrotation Xrotation Yrotation
        JOINT ElbowLeft
        {
          OFFSET -1.096402 -26.224372 1.541045
          CHANNELS 3 Zrotation Xrotation Yrotation
          JOINT WristLeft
          {
            OFFSET -1.425967 -26.108832 -0.852265
            CHANNELS 3 Zrotation Xrotation Yrotation
            JOINT HandLeft
            {
              OFFSET 2.473117 -5.142136 -1.991436
              CHANNELS 3 Zrotation Xrotation Yrotation
              JOINT HandTipLeft
              {
                OFFSET 2.611908 -5.439138 -4.480212
                CHANNELS 3 Zrotation Xrotation Yrotation
                End Site
                {
                  OFFSET 0 0 0
                }
              }
              JOINT ThumbLeft
              {
                OFFSET 2.245313 1.388930 -5.470229
                CHANNELS 3 Zrotation Xrotation Yrotation
                End Site
                {
                  OFFSET 0 0 0
                }
              }
            }
          }
        }
      }
      JOINT ShoulderRight
      {
        OFFSET 10.938059 -3.974270 -10.931344
        CHANNELS 3 Zrotation Xrotation Yrotation
        JOINT ElbowRight
        {
          OFFSET 5.901870 -22.780385 -2.253822
          CHANNELS 3 Zrotation Xrotation Yrotation
          JOINT WristRight
          {
            OFFSET -0.482495 -18.998968 -5.287572
            CHANNELS 3 Zrotation Xrotation Yrotation
            JOINT HandRight
            {
              OFFSET -0.891514 -7.193697 0.085685
              CHANNELS 3 Zrotation Xrotation Yrotation
              JOINT HandTipRight
              {
                OFFSET 0.164490 -5.985130 -0.088052
                CHANNELS 3 Zrotation Xrotation Yrotation
                End Site
                {
                  OFFSET 0 0 0
                }
              }
              JOINT ThumbRight
              {
                OFFSET -3.094434 1.561012 -0.063817
                CHANNELS 3 Zrotation Xrotation Yrotation
                End Site
                {
                  OFFSET 0 0 0
                }
              }
            }
          }
        }
      }
    }
  }
  JOINT HipLeft
  {
    OFFSET -5.042021 0.086200 -0.034919
    CHANNELS 3 Zrotation Xrotation Yrotation
    JOINT KneeLeft
    {
      OFFSET 5.175209 -26.383145 6.876523
      CHANNELS 3 Zrotation Xrotation Yrotation
      JOINT AnkleLeft
      {
        OFFSET 10.096231 -35.657940 8.704341
        CHANNELS 3 Zrotation Xrotation Yrotation
        JOINT FootLeft
        {
          OFFSET -2.049413 -4.787472 -6.349154
          CHANNELS 3 Zrotation Xrotation Yrotation
          End Site
          {
            OFFSET 0 0 0
          }
        }
      }
    }
  }
  JOINT HipRight
  {
    OFFSET 4.707542 1.496189 -6.599737
    CHANNELS 3 Zrotation Xrotation Yrotation
    JOINT KneeRight
    {
      OFFSET 8.652895 -30.805491 7.707530
      CHANNELS 3 Zrotation Xrotation Yrotation
      JOINT AnkleRight
      {
        OFFSET 2.502847 -29.893274 8.942364
        CHANNELS 3 Zrotation Xrotation Yrotation
        JOINT FootRight
        {
          OFFSET -4.722992 -2.996564 -8.513995
          CHANNELS 3 Zrotation Xrotation Yrotation
          End Site
          {
            OFFSET 0 0 0
          }
        }
      }
    }
  }
}
MOTION
Frames: 12
Frame Time: 0.033333
17.220543 71.877217 345.703225 0.000000 0.000000 33.954151 -0.000000 0.000000 -33.954151 -0.000000 0.000000 0.000000 -0.000000 0.000000 0.000000 0.000000 0.000000 0.000000 -0.000000 0.000000 0.000000 -0.000000 0.000000 0.000000 -0.000000 0.000000 0.000000 -0.000000 0.000000 0.000000 0.000000 0.000000 0.000000 0.000000 0.000000 0.000000 -0.000000 0.000000 0.000000 -0.000000 0.000000 0.000000 -0.000000 0.000000 0.000000 -0.000000 0.000000 0.000000 0.000000 0.000000 0.000000 0.000000 0.000000 0.000000 -0.000000 0.000000 -33.954151 -0.000000 0.000000 0.000000 -0.000000 0.000000 0.000000 0.000000 0.000000 0.000000 -0.000000 0.000000 -33.954151 -0.000000 0.000000 0.000000 -0.000000 0.000000 0.000000 0.000000 0.000000 0.000000
17.190157 71.887472 345.829939 0.021203 0.069705 33.981181 -0.056541 -0.045950 -33.981217 -0.000000 0.000000 0.000000 -0.000000 0.000000 0.000000 0.000000 0.000000 0.000000 0.226642 1.539197 -0.054129 -0.200273 -2.861508 0.120479 2.897091 3.129625 -0.436053 -2.083047 -2.883961 -0.949903 0.000000 0.000000 0.000000 0.000000 0.000000 0.000000 -0.000000 0.000000 0.000000 -0.000000 0.000000 0.000000 -0.000000 0.000000 0.000000 -0.000000 0.000000 0.000000 0.000000 0.000000 0.000000 0.000000 0.000000 0.000000 -0.056541 -0.045950 -33.981217 -0.000000 0.000000 0.000000 -4.389650 8.930660 2.086067 0.000000 0.000000 0.000000 -0.056541 -0.045950 -33.981217 -0.000000 0.000000 0.000000 -0.292487 2.131571 -2.387398 0.000000 0.000000 0.000000
17.200281 71.900499 345.912156 0.044002 0.109822 33.992011 -0.097881 -0.066454 -33.992110 -0.000000 0.000000 0.000000 -0.000000 0.000000 0.000000 0.000000 0.000000 0.000000 0.350433 2.589406 -0.095744 -0.350791 -4.946995 0.208793 4.464822 5.204038 -0.750441 -3.451791 -5.463275 -1.764904 0.000000 0.000000 0.000000 0.000000 0.000000 0.000000 -0.000000 0.000000 0.000000 -0.000000 0.000000 0.000000 0.025421 1.432712 -0.177611 -0.020987 -1.432784 0.177031 0.000000 0.000000 0.000000 0.000000 0.000000 0.000000 -0.097881 -0.066454 -33.992110 -0.000000 0.000000 0.000000 -7.246261 13.786307 3.846989 0.000000 0.000000 0.000000 -0.097881 -0.066454 -33.992110 -0.000000 0.000000 0.000000 -0.328604 3.004893 -3.515849 0.000000 0.000000 0.000000
17.250916 71.916298 345.949877 0.068402 0.120334 33.987016 -0.123984 -0.061539 -33.987154 -0.000000 0.000000 0.000000 -0.000000 0.000000 0.000000 0.000000 0.000000 0.000000 0.370740 3.153316 -0.120498 -0.454641 -6.273905 0.266533 4.755680 6.312829 -0.790623 -4.153609 -7.837196 -2.512725 0.000000 0.000000 0.000000 0.000000 0.000000 0.000000 -0.000000 0.000000 0.000000 -0.000000 0.000000 0.000000 0.216298 2.244482 -0.279985 -0.205488 -2.245497 0.271721 0.000000 0.000000 0.000000 0.000000 0.000000 0.000000 -0.123984 -0.061539 -33.987154 -0.000000 0.000000 0.000000 -8.972122 15.982892 5.160383 0.000000 0.000000 0.000000 -0.123984 -0.061539 -33.987154 -0.000000 0.000000 0.000000 -0.203125 2.882917 -3.687292 0.000000 0.000000 0.000000
17.342062 71.934870 345.943101 0.094407 0.101216 33.966461 -0.134848 -0.031199 -33.966582 -0.000000 0.000000 0.000000 -0.000000 0.000000 0.000000 0.000000 0.000000 0.000000 0.287097 3.232809 -0.126649 -0.514736 -6.852998 0.295774 3.705041 6.456657 -0.467752 -4.192709 -10.101670 -3.264541 0.000000 0.000000 0.000000 0.000000 0.000000 0.000000 -0.000000 0.000000 0.000000 -0.000000 0.000000 0.000000 0.523867 3.118594 -0.394953 -0.503115 -3.122005 0.366982 0.000000 0.000000 0.000000 0.000000 0.000000 0.000000 -0.134848 -0.031199 -33.966582 -0.000000 0.000000 0.000000 -9.778117 16.173425 6.053045 0.000000 0.000000 0.000000 -0.134848 -0.031199 -33.966582 -0.000000 0.000000 0.000000 0.090792 1.786616 -2.947960 0.000000 0.000000 0.000000
17.473718 71.956214 345.891830 0.122022 0.052438 33.930502 -0.130514 0.024603 -33.930530 -0.000000 0.000000 0.000000 -0.000000 0.000000 0.000000 0.000000 0.000000 0.000000 0.099200 2.827717 -0.115037 -0.533964 -6.686948 0.299278 1.119650 5.522376 0.251991 -3.519417 -12.342447 -4.118796 0.000000 0.000000 0.000000 0.000000 0.000000 0.000000 -0.000000 0.000000 0.000000 -0.000000 0.000000 0.000000 0.946974 4.053903 -0.525602 -0.912068 -4.061886 0.459742 0.000000 0.000000 0.000000 0.000000 0.000000 0.000000 -0.130514 0.024603 -33.930530 -0.000000 0.000000 0.000000 -9.722037 14.474410 6.576847 0.000000 0.000000 0.000000 -0.130514 0.024603 -33.930530 1.158522 -0.146066 0.335410 -0.506456 -0.333343 -1.452745 0.000000 0.000000 0.000000
17.637556 72.022820 345.805699 0.220071 0.079071 33.841984 -0.226820 0.056884 -33.842023 -0.000000 0.000000 0.000000 -0.000000 0.000000 0.000000 0.000000 0.000000 0.000000 -0.340032 1.311797 -0.070975 -0.207273 -4.501409 0.243317 -3.977599 2.611080 1.529472 -2.932351 -16.712951 -5.878612 0.000000 0.000000 0.000000 0.000000 0.000000 0.000000 -0.000000 0.000000 0.000000 1.173261 0.865065 -0.356709 0.267039 3.524626 -0.222106 -1.876575 -2.518735 0.504030 0.000000 0.000000 0.000000 0.000000 0.000000 0.000000 -0.226820 0.056884 -33.842023 -0.000000 0.000000 0.000000 -4.571267 6.462112 3.254401 0.000000 0.000000 0.000000 -0.077234 0.990659 -33.700764 2.888590 -0.423907 0.670824 0.101952 -6.753755 2.283261 0.000000 0.000000 0.000000
17.847730 72.073618 345.701188 0.249590 -0.055694 33.723352 -0.176671 0.184890 -33.722945 -0.000000 0.000000 0.000000 -0.000000 0.000000 0.000000 0.000000 0.000000 0.000000 -1.008969 -1.129425 -0.021996 0.462084 -0.740664 0.124000 -12.042812 -3.290190 2.284435 0.864901 -17.422049 -7.331000 0.000000 0.000000 0.000000 0.000000 0.000000 0.000000 -0.000000 0.000000 0.000000 1.803976 1.296480 -0.553915 0.143147 4.089545 -0.180075 -3.225258 -3.271144 0.534641 0.000000 0.000000 0.000000 0.000000 0.000000 0.000000 -1.292928 0.401140 -34.077082 1.516363 1.080895 0.644221 -2.712015 -3.941276 4.107085 0.000000 0.000000 0.000000 0.037401 2.053571 -33.470734 4.517669 -0.849672 1.002396 1.613210 -14.329876 9.291120 0.000000 0.000000 0.000000
18.053256 72.107637 345.563478 0.160733 -0.313598 33.653290 0.039990 0.350113 -33.652972 -0.000000 0.000000 0.000000 -0.000000 0.000000 0.000000 0.000000 0.000000 0.000000 -1.546224 -2.847533 -0.010204 0.624279 1.389723 0.077152 -21.089250 -8.192564 2.912917 3.974760 -18.862264 -9.176562 0.000000 0.000000 0.000000 0.000000 0.000000 0.000000 -0.000000 0.000000 0.000000 2.215728 1.668809 -0.688928 0.510382 6.072012 -0.410308 -4.894249 -7.422912 0.498096 0.000000 0.000000 0.000000 0.000000 0.000000 0.000000 -1.780210 0.624793 -34.225723 2.664993 1.827500 1.090405 2.026284 -20.777412 5.829669 0.000000 0.000000 0.000000 0.315849 3.165547 -33.289921 6.095925 -1.491972 1.338028 5.394539 -23.214958 20.523484 0.000000 0.000000 0.000000
18.384387 72.055348 345.255365 0.163329 -0.525587 33.804194 0.156698 0.527602 -33.804167 0.039048 -0.872104 0.000149 0.779160 0.456563 -0.103920 0.000000 0.000000 0.000000 -1.930480 -3.185637 0.020689 0.424703 2.743105 0.081374 -30.347405 -14.105448 1.716869 7.609235 -20.180013 -12.678337 0.000000 0.000000 0.000000 0.000000 0.000000 0.000000 0.276004 -0.457236 -0.376447 2.255038 3.354538 -0.494217 1.131087 7.392882 -0.577931 -6.133949 -10.595624 0.398214 0.000000 0.000000 0.000000 0.000000 0.000000 0.000000 -3.056666 0.750852 -34.812252 4.121737 3.105446 1.689424 1.796123 -25.298448 8.376637 0.000000 0.000000 0.000000 0.184977 4.310954 -33.434096 7.652529 -2.286994 1.695410 13.117052 -31.669124 36.599045 0.000000 0.000000 0.000000
18.741806 71.934309 344.842333 0.137141 -0.779362 34.094565 -0.265352 -0.146588 -34.094512 -0.042593 -0.175388 -0.005229 0.516728 0.341797 -0.187546 0.000000 0.000000 0.000000 -2.373786 -4.070085 0.026094 0.108828 3.491340 0.159974 -38.346754 -17.822028 0.965791 8.847089 -21.658677 -15.073066 0.000000 0.000000 0.000000 0.000000 0.000000 0.000000 0.393861 -1.051304 -0.618865 2.437338 4.650882 -0.380760 2.420307 9.060008 -0.882326 -8.842794 -12.311840 0.112447 0.000000 0.000000 0.000000 0.000000 0.000000 0.000000 -3.758903 1.043577 -35.359722 4.755201 3.166409 1.807026 2.188505 -27.962437 10.806119 0.000000 0.000000 0.000000 -0.049363 5.151295 -33.798897 8.622477 -3.037990 1.916743 21.875035 -35.881594 53.340136 0.000000 0.000000 0.000000
19.146530 71.698151 344.328321 0.074621 -1.044123 34.287785 -0.314100 -0.160924 -34.291043 -0.054858 -0.184557 -0.010526 -0.023792 0.199284 -0.258850 0.000000 0.000000 0.000000 -2.756798 -4.456169 0.019854 -0.632290 2.682449 0.332564 -43.106411 -19.414165 0.959816 10.026346 -22.807815 -18.254797 0.000000 0.000000 0.000000 0.000000 0.000000 0.000000 0.682438 -0.996764 -0.698794 2.777870 4.041414 -0.437119 2.056107 11.133060 -1.042338 -7.764173 -15.385638 0.284107 0.000000 0.000000 0.000000 0.000000 0.000000 0.000000 -4.464415 1.488243 -35.808558 5.499934 2.567728 1.775716 2.353110 -27.829529 12.057883 0.000000 0.000000 0.000000 -0.271785 6.092397 -34.056668 9.502763 -4.335189 2.076425 26.499301 -36.023630 64.108119 0.000000 0.000000 0.000000
